<mxfile host="app.diagrams.net" modified="2021-06-16T07:59:25.751Z" agent="5.0 (Windows NT 10.0; Win64; x64) AppleWebKit/537.36 (KHTML, like Gecko) Chrome/90.0.4430.212 Safari/537.36" etag="YnYArwNHpbnLAr4Au4WN" version="14.5.8" type="github">
  <diagram id="SGdaD_TXG3CUPc7qYm1k" name="Page-1">
    <mxGraphModel dx="1248" dy="654" grid="1" gridSize="10" guides="1" tooltips="1" connect="1" arrows="1" fold="1" page="1" pageScale="1" pageWidth="827" pageHeight="1169" math="0" shadow="0">
      <root>
        <mxCell id="0" />
        <mxCell id="1" parent="0" />
        <mxCell id="o-3EE55-kmr8AlU0Wy5A-6" value="So SIM App" style="text;html=1;align=center;verticalAlign=middle;resizable=0;points=[];autosize=1;strokeColor=none;fontSize=16;" vertex="1" parent="1">
          <mxGeometry x="255.5" y="40" width="100" height="20" as="geometry" />
        </mxCell>
        <mxCell id="o-3EE55-kmr8AlU0Wy5A-7" value="xAPI" style="text;html=1;align=center;verticalAlign=middle;resizable=0;points=[];autosize=1;strokeColor=none;fontSize=16;" vertex="1" parent="1">
          <mxGeometry x="484" y="40" width="50" height="20" as="geometry" />
        </mxCell>
        <mxCell id="o-3EE55-kmr8AlU0Wy5A-8" value="CRM &amp;amp; Billing" style="text;html=1;align=center;verticalAlign=middle;resizable=0;points=[];autosize=1;strokeColor=none;fontSize=16;" vertex="1" parent="1">
          <mxGeometry x="680.5" y="40" width="110" height="20" as="geometry" />
        </mxCell>
        <mxCell id="o-3EE55-kmr8AlU0Wy5A-18" value="" style="rounded=0;whiteSpace=wrap;html=1;gradientColor=none;" vertex="1" parent="1">
          <mxGeometry x="479.5" y="630" width="90" height="240" as="geometry" />
        </mxCell>
        <mxCell id="o-3EE55-kmr8AlU0Wy5A-19" value="M" style="ellipse;whiteSpace=wrap;html=1;aspect=fixed;gradientColor=none;" vertex="1" parent="1">
          <mxGeometry x="509" y="660" width="30" height="30" as="geometry" />
        </mxCell>
        <mxCell id="o-3EE55-kmr8AlU0Wy5A-20" value="P1" style="ellipse;whiteSpace=wrap;html=1;aspect=fixed;gradientColor=none;" vertex="1" parent="1">
          <mxGeometry x="509" y="700" width="30" height="30" as="geometry" />
        </mxCell>
        <mxCell id="o-3EE55-kmr8AlU0Wy5A-21" value="P2" style="ellipse;whiteSpace=wrap;html=1;aspect=fixed;gradientColor=none;" vertex="1" parent="1">
          <mxGeometry x="509" y="740" width="30" height="30" as="geometry" />
        </mxCell>
        <mxCell id="o-3EE55-kmr8AlU0Wy5A-22" value="P3" style="ellipse;whiteSpace=wrap;html=1;aspect=fixed;gradientColor=none;" vertex="1" parent="1">
          <mxGeometry x="509" y="780" width="30" height="30" as="geometry" />
        </mxCell>
        <mxCell id="o-3EE55-kmr8AlU0Wy5A-23" value="P4" style="ellipse;whiteSpace=wrap;html=1;aspect=fixed;gradientColor=none;" vertex="1" parent="1">
          <mxGeometry x="509" y="820" width="30" height="30" as="geometry" />
        </mxCell>
        <mxCell id="o-3EE55-kmr8AlU0Wy5A-38" value="UAT" style="text;html=1;align=center;verticalAlign=middle;resizable=0;points=[];autosize=1;strokeColor=none;" vertex="1" parent="1">
          <mxGeometry x="499" y="630" width="40" height="20" as="geometry" />
        </mxCell>
        <mxCell id="o-3EE55-kmr8AlU0Wy5A-39" value="" style="rounded=0;whiteSpace=wrap;html=1;gradientColor=none;" vertex="1" parent="1">
          <mxGeometry x="469.5" y="80" width="90" height="240" as="geometry" />
        </mxCell>
        <mxCell id="o-3EE55-kmr8AlU0Wy5A-46" value="" style="rounded=0;whiteSpace=wrap;html=1;gradientColor=none;" vertex="1" parent="1">
          <mxGeometry x="479.5" y="910" width="90" height="240" as="geometry" />
        </mxCell>
        <mxCell id="o-3EE55-kmr8AlU0Wy5A-47" value="M" style="ellipse;whiteSpace=wrap;html=1;aspect=fixed;gradientColor=none;" vertex="1" parent="1">
          <mxGeometry x="509" y="940" width="30" height="30" as="geometry" />
        </mxCell>
        <mxCell id="o-3EE55-kmr8AlU0Wy5A-48" value="P1" style="ellipse;whiteSpace=wrap;html=1;aspect=fixed;gradientColor=none;" vertex="1" parent="1">
          <mxGeometry x="509" y="980" width="30" height="30" as="geometry" />
        </mxCell>
        <mxCell id="o-3EE55-kmr8AlU0Wy5A-49" value="P2" style="ellipse;whiteSpace=wrap;html=1;aspect=fixed;gradientColor=none;" vertex="1" parent="1">
          <mxGeometry x="509" y="1020" width="30" height="30" as="geometry" />
        </mxCell>
        <mxCell id="o-3EE55-kmr8AlU0Wy5A-50" value="P3" style="ellipse;whiteSpace=wrap;html=1;aspect=fixed;gradientColor=none;" vertex="1" parent="1">
          <mxGeometry x="509" y="1060" width="30" height="30" as="geometry" />
        </mxCell>
        <mxCell id="o-3EE55-kmr8AlU0Wy5A-51" value="P4" style="ellipse;whiteSpace=wrap;html=1;aspect=fixed;gradientColor=none;" vertex="1" parent="1">
          <mxGeometry x="509" y="1100" width="30" height="30" as="geometry" />
        </mxCell>
        <mxCell id="o-3EE55-kmr8AlU0Wy5A-52" value="PPD" style="text;html=1;align=center;verticalAlign=middle;resizable=0;points=[];autosize=1;strokeColor=none;" vertex="1" parent="1">
          <mxGeometry x="504" y="910" width="40" height="20" as="geometry" />
        </mxCell>
        <mxCell id="o-3EE55-kmr8AlU0Wy5A-88" value="" style="rounded=0;whiteSpace=wrap;html=1;gradientColor=none;" vertex="1" parent="1">
          <mxGeometry x="260.5" y="80" width="90" height="240" as="geometry" />
        </mxCell>
        <mxCell id="o-3EE55-kmr8AlU0Wy5A-102" value="" style="rounded=0;whiteSpace=wrap;html=1;gradientColor=none;" vertex="1" parent="1">
          <mxGeometry x="270" y="630" width="90" height="240" as="geometry" />
        </mxCell>
        <mxCell id="o-3EE55-kmr8AlU0Wy5A-136" style="edgeStyle=orthogonalEdgeStyle;rounded=0;orthogonalLoop=1;jettySize=auto;html=1;fontSize=12;" edge="1" parent="1" source="o-3EE55-kmr8AlU0Wy5A-103" target="o-3EE55-kmr8AlU0Wy5A-19">
          <mxGeometry relative="1" as="geometry" />
        </mxCell>
        <mxCell id="o-3EE55-kmr8AlU0Wy5A-103" value="0" style="ellipse;whiteSpace=wrap;html=1;aspect=fixed;gradientColor=none;" vertex="1" parent="1">
          <mxGeometry x="299.5" y="660" width="30" height="30" as="geometry" />
        </mxCell>
        <mxCell id="o-3EE55-kmr8AlU0Wy5A-104" value="1" style="ellipse;whiteSpace=wrap;html=1;aspect=fixed;gradientColor=none;" vertex="1" parent="1">
          <mxGeometry x="299.5" y="700" width="30" height="30" as="geometry" />
        </mxCell>
        <mxCell id="o-3EE55-kmr8AlU0Wy5A-105" value="2" style="ellipse;whiteSpace=wrap;html=1;aspect=fixed;gradientColor=none;" vertex="1" parent="1">
          <mxGeometry x="299.5" y="740" width="30" height="30" as="geometry" />
        </mxCell>
        <mxCell id="o-3EE55-kmr8AlU0Wy5A-106" value="3" style="ellipse;whiteSpace=wrap;html=1;aspect=fixed;gradientColor=none;" vertex="1" parent="1">
          <mxGeometry x="299.5" y="780" width="30" height="30" as="geometry" />
        </mxCell>
        <mxCell id="o-3EE55-kmr8AlU0Wy5A-107" value="4" style="ellipse;whiteSpace=wrap;html=1;aspect=fixed;gradientColor=none;" vertex="1" parent="1">
          <mxGeometry x="299.5" y="820" width="30" height="30" as="geometry" />
        </mxCell>
        <mxCell id="o-3EE55-kmr8AlU0Wy5A-108" value="UAT" style="text;html=1;align=center;verticalAlign=middle;resizable=0;points=[];autosize=1;strokeColor=none;" vertex="1" parent="1">
          <mxGeometry x="294.5" y="630" width="40" height="20" as="geometry" />
        </mxCell>
        <mxCell id="o-3EE55-kmr8AlU0Wy5A-109" value="" style="rounded=0;whiteSpace=wrap;html=1;gradientColor=none;" vertex="1" parent="1">
          <mxGeometry x="270.5" y="910" width="90" height="240" as="geometry" />
        </mxCell>
        <mxCell id="o-3EE55-kmr8AlU0Wy5A-138" style="edgeStyle=orthogonalEdgeStyle;rounded=0;orthogonalLoop=1;jettySize=auto;html=1;fontSize=12;" edge="1" parent="1" source="o-3EE55-kmr8AlU0Wy5A-110" target="o-3EE55-kmr8AlU0Wy5A-47">
          <mxGeometry relative="1" as="geometry" />
        </mxCell>
        <mxCell id="o-3EE55-kmr8AlU0Wy5A-110" value="0" style="ellipse;whiteSpace=wrap;html=1;aspect=fixed;gradientColor=none;" vertex="1" parent="1">
          <mxGeometry x="300" y="940" width="30" height="30" as="geometry" />
        </mxCell>
        <mxCell id="o-3EE55-kmr8AlU0Wy5A-111" value="1" style="ellipse;whiteSpace=wrap;html=1;aspect=fixed;gradientColor=none;" vertex="1" parent="1">
          <mxGeometry x="300" y="980" width="30" height="30" as="geometry" />
        </mxCell>
        <mxCell id="o-3EE55-kmr8AlU0Wy5A-146" style="edgeStyle=orthogonalEdgeStyle;rounded=0;orthogonalLoop=1;jettySize=auto;html=1;fontSize=16;" edge="1" parent="1" source="o-3EE55-kmr8AlU0Wy5A-112" target="o-3EE55-kmr8AlU0Wy5A-49">
          <mxGeometry relative="1" as="geometry" />
        </mxCell>
        <mxCell id="o-3EE55-kmr8AlU0Wy5A-112" value="2" style="ellipse;whiteSpace=wrap;html=1;aspect=fixed;gradientColor=none;" vertex="1" parent="1">
          <mxGeometry x="300" y="1020" width="30" height="30" as="geometry" />
        </mxCell>
        <mxCell id="o-3EE55-kmr8AlU0Wy5A-113" value="3" style="ellipse;whiteSpace=wrap;html=1;aspect=fixed;gradientColor=none;" vertex="1" parent="1">
          <mxGeometry x="300" y="1060" width="30" height="30" as="geometry" />
        </mxCell>
        <mxCell id="o-3EE55-kmr8AlU0Wy5A-114" value="4" style="ellipse;whiteSpace=wrap;html=1;aspect=fixed;gradientColor=none;" vertex="1" parent="1">
          <mxGeometry x="300" y="1100" width="30" height="30" as="geometry" />
        </mxCell>
        <mxCell id="o-3EE55-kmr8AlU0Wy5A-115" value="Preprod App" style="text;html=1;align=center;verticalAlign=middle;resizable=0;points=[];autosize=1;strokeColor=none;" vertex="1" parent="1">
          <mxGeometry x="275" y="910" width="80" height="20" as="geometry" />
        </mxCell>
        <mxCell id="o-3EE55-kmr8AlU0Wy5A-116" value="" style="rounded=0;whiteSpace=wrap;html=1;gradientColor=none;" vertex="1" parent="1">
          <mxGeometry x="690.5" y="80" width="90" height="120" as="geometry" />
        </mxCell>
        <mxCell id="o-3EE55-kmr8AlU0Wy5A-124" value="" style="rounded=0;whiteSpace=wrap;html=1;gradientColor=none;" vertex="1" parent="1">
          <mxGeometry x="700.5" y="630" width="90" height="120" as="geometry" />
        </mxCell>
        <mxCell id="o-3EE55-kmr8AlU0Wy5A-125" value="OGP" style="ellipse;whiteSpace=wrap;html=1;aspect=fixed;gradientColor=none;" vertex="1" parent="1">
          <mxGeometry x="730.5" y="700" width="30" height="30" as="geometry" />
        </mxCell>
        <mxCell id="o-3EE55-kmr8AlU0Wy5A-126" value="&lt;font style=&quot;font-size: 11px&quot;&gt;N&lt;/font&gt;" style="ellipse;whiteSpace=wrap;html=1;aspect=fixed;gradientColor=none;fontSize=12;" vertex="1" parent="1">
          <mxGeometry x="730" y="660" width="30" height="30" as="geometry" />
        </mxCell>
        <mxCell id="o-3EE55-kmr8AlU0Wy5A-127" value="UAT" style="text;html=1;align=center;verticalAlign=middle;resizable=0;points=[];autosize=1;strokeColor=none;" vertex="1" parent="1">
          <mxGeometry x="725" y="630" width="40" height="20" as="geometry" />
        </mxCell>
        <mxCell id="o-3EE55-kmr8AlU0Wy5A-128" value="" style="rounded=0;whiteSpace=wrap;html=1;gradientColor=none;" vertex="1" parent="1">
          <mxGeometry x="700" y="910" width="90" height="120" as="geometry" />
        </mxCell>
        <mxCell id="o-3EE55-kmr8AlU0Wy5A-129" value="OGP" style="ellipse;whiteSpace=wrap;html=1;aspect=fixed;gradientColor=none;" vertex="1" parent="1">
          <mxGeometry x="730.5" y="980" width="30" height="30" as="geometry" />
        </mxCell>
        <mxCell id="o-3EE55-kmr8AlU0Wy5A-130" value="&lt;font style=&quot;font-size: 11px&quot;&gt;N&lt;/font&gt;" style="ellipse;whiteSpace=wrap;html=1;aspect=fixed;gradientColor=none;fontSize=12;" vertex="1" parent="1">
          <mxGeometry x="729.5" y="940" width="30" height="30" as="geometry" />
        </mxCell>
        <mxCell id="o-3EE55-kmr8AlU0Wy5A-131" value="PPD" style="text;html=1;align=center;verticalAlign=middle;resizable=0;points=[];autosize=1;strokeColor=none;" vertex="1" parent="1">
          <mxGeometry x="724.5" y="910" width="40" height="20" as="geometry" />
        </mxCell>
        <mxCell id="o-3EE55-kmr8AlU0Wy5A-135" style="edgeStyle=orthogonalEdgeStyle;rounded=0;orthogonalLoop=1;jettySize=auto;html=1;fontSize=12;" edge="1" parent="1" source="o-3EE55-kmr8AlU0Wy5A-40" target="o-3EE55-kmr8AlU0Wy5A-121">
          <mxGeometry relative="1" as="geometry" />
        </mxCell>
        <mxCell id="o-3EE55-kmr8AlU0Wy5A-40" value="M" style="ellipse;whiteSpace=wrap;html=1;aspect=fixed;fillColor=none;gradientColor=none;" vertex="1" parent="1">
          <mxGeometry x="499" y="110" width="30" height="30" as="geometry" />
        </mxCell>
        <mxCell id="o-3EE55-kmr8AlU0Wy5A-153" style="edgeStyle=orthogonalEdgeStyle;rounded=0;orthogonalLoop=1;jettySize=auto;html=1;entryX=0;entryY=0.5;entryDx=0;entryDy=0;fontSize=16;" edge="1" parent="1" source="o-3EE55-kmr8AlU0Wy5A-41" target="o-3EE55-kmr8AlU0Wy5A-117">
          <mxGeometry relative="1" as="geometry" />
        </mxCell>
        <mxCell id="o-3EE55-kmr8AlU0Wy5A-41" value="P1" style="ellipse;whiteSpace=wrap;html=1;aspect=fixed;fillColor=none;gradientColor=none;" vertex="1" parent="1">
          <mxGeometry x="499" y="150" width="30" height="30" as="geometry" />
        </mxCell>
        <mxCell id="o-3EE55-kmr8AlU0Wy5A-42" value="P2" style="ellipse;whiteSpace=wrap;html=1;aspect=fixed;fillColor=none;gradientColor=none;" vertex="1" parent="1">
          <mxGeometry x="499" y="190" width="30" height="30" as="geometry" />
        </mxCell>
        <mxCell id="o-3EE55-kmr8AlU0Wy5A-43" value="P3" style="ellipse;whiteSpace=wrap;html=1;aspect=fixed;fillColor=none;gradientColor=none;" vertex="1" parent="1">
          <mxGeometry x="499" y="230" width="30" height="30" as="geometry" />
        </mxCell>
        <mxCell id="o-3EE55-kmr8AlU0Wy5A-44" value="P4" style="ellipse;whiteSpace=wrap;html=1;aspect=fixed;fillColor=none;gradientColor=none;" vertex="1" parent="1">
          <mxGeometry x="499" y="270" width="30" height="30" as="geometry" />
        </mxCell>
        <mxCell id="o-3EE55-kmr8AlU0Wy5A-134" style="edgeStyle=orthogonalEdgeStyle;rounded=0;orthogonalLoop=1;jettySize=auto;html=1;fontSize=12;" edge="1" parent="1" source="o-3EE55-kmr8AlU0Wy5A-89" target="o-3EE55-kmr8AlU0Wy5A-40">
          <mxGeometry relative="1" as="geometry" />
        </mxCell>
        <mxCell id="o-3EE55-kmr8AlU0Wy5A-89" value="0" style="ellipse;whiteSpace=wrap;html=1;aspect=fixed;gradientColor=none;" vertex="1" parent="1">
          <mxGeometry x="290" y="110" width="30" height="30" as="geometry" />
        </mxCell>
        <mxCell id="o-3EE55-kmr8AlU0Wy5A-152" style="edgeStyle=orthogonalEdgeStyle;rounded=0;orthogonalLoop=1;jettySize=auto;html=1;entryX=0;entryY=0.5;entryDx=0;entryDy=0;fontSize=16;" edge="1" parent="1" source="o-3EE55-kmr8AlU0Wy5A-90" target="o-3EE55-kmr8AlU0Wy5A-41">
          <mxGeometry relative="1" as="geometry" />
        </mxCell>
        <mxCell id="o-3EE55-kmr8AlU0Wy5A-90" value="1" style="ellipse;whiteSpace=wrap;html=1;aspect=fixed;fillColor=none;gradientColor=none;" vertex="1" parent="1">
          <mxGeometry x="290" y="150" width="30" height="30" as="geometry" />
        </mxCell>
        <mxCell id="o-3EE55-kmr8AlU0Wy5A-91" value="2" style="ellipse;whiteSpace=wrap;html=1;aspect=fixed;fillColor=none;gradientColor=none;" vertex="1" parent="1">
          <mxGeometry x="290" y="190" width="30" height="30" as="geometry" />
        </mxCell>
        <mxCell id="o-3EE55-kmr8AlU0Wy5A-92" value="3" style="ellipse;whiteSpace=wrap;html=1;aspect=fixed;fillColor=none;gradientColor=none;" vertex="1" parent="1">
          <mxGeometry x="290" y="230" width="30" height="30" as="geometry" />
        </mxCell>
        <mxCell id="o-3EE55-kmr8AlU0Wy5A-93" value="4" style="ellipse;whiteSpace=wrap;html=1;aspect=fixed;fillColor=none;gradientColor=none;" vertex="1" parent="1">
          <mxGeometry x="290" y="270" width="30" height="30" as="geometry" />
        </mxCell>
        <mxCell id="o-3EE55-kmr8AlU0Wy5A-117" value="OGP" style="ellipse;whiteSpace=wrap;html=1;aspect=fixed;fillColor=none;gradientColor=none;" vertex="1" parent="1">
          <mxGeometry x="720.5" y="150" width="30" height="30" as="geometry" />
        </mxCell>
        <mxCell id="o-3EE55-kmr8AlU0Wy5A-121" value="&lt;font style=&quot;font-size: 11px&quot;&gt;N&lt;/font&gt;" style="ellipse;whiteSpace=wrap;html=1;aspect=fixed;fillColor=none;gradientColor=none;fontSize=12;" vertex="1" parent="1">
          <mxGeometry x="720.5" y="110" width="30" height="30" as="geometry" />
        </mxCell>
        <mxCell id="o-3EE55-kmr8AlU0Wy5A-45" value="DEV" style="text;html=1;align=center;verticalAlign=middle;resizable=0;points=[];autosize=1;strokeColor=none;" vertex="1" parent="1">
          <mxGeometry x="494" y="80" width="40" height="20" as="geometry" />
        </mxCell>
        <mxCell id="o-3EE55-kmr8AlU0Wy5A-94" value="SOSIM App&lt;br&gt;Dev" style="text;html=1;align=center;verticalAlign=middle;resizable=0;points=[];autosize=1;strokeColor=none;" vertex="1" parent="1">
          <mxGeometry x="264.5" y="80" width="80" height="30" as="geometry" />
        </mxCell>
        <mxCell id="o-3EE55-kmr8AlU0Wy5A-122" value="SIT" style="text;html=1;align=center;verticalAlign=middle;resizable=0;points=[];autosize=1;strokeColor=none;" vertex="1" parent="1">
          <mxGeometry x="720" y="80" width="30" height="20" as="geometry" />
        </mxCell>
        <mxCell id="o-3EE55-kmr8AlU0Wy5A-137" style="edgeStyle=orthogonalEdgeStyle;rounded=0;orthogonalLoop=1;jettySize=auto;html=1;fontSize=12;" edge="1" parent="1" source="o-3EE55-kmr8AlU0Wy5A-19" target="o-3EE55-kmr8AlU0Wy5A-126">
          <mxGeometry relative="1" as="geometry" />
        </mxCell>
        <mxCell id="o-3EE55-kmr8AlU0Wy5A-139" style="edgeStyle=orthogonalEdgeStyle;rounded=0;orthogonalLoop=1;jettySize=auto;html=1;entryX=0;entryY=0.5;entryDx=0;entryDy=0;fontSize=12;" edge="1" parent="1" source="o-3EE55-kmr8AlU0Wy5A-47" target="o-3EE55-kmr8AlU0Wy5A-129">
          <mxGeometry relative="1" as="geometry" />
        </mxCell>
        <mxCell id="o-3EE55-kmr8AlU0Wy5A-145" value="On going Project" style="text;html=1;align=center;verticalAlign=middle;resizable=0;points=[];autosize=1;strokeColor=none;fontSize=16;" vertex="1" parent="1">
          <mxGeometry x="50" y="40" width="130" height="20" as="geometry" />
        </mxCell>
        <mxCell id="o-3EE55-kmr8AlU0Wy5A-148" style="edgeStyle=orthogonalEdgeStyle;rounded=0;orthogonalLoop=1;jettySize=auto;html=1;entryX=0;entryY=0.5;entryDx=0;entryDy=0;fontSize=16;" edge="1" parent="1" source="o-3EE55-kmr8AlU0Wy5A-147" target="o-3EE55-kmr8AlU0Wy5A-112">
          <mxGeometry relative="1" as="geometry" />
        </mxCell>
        <mxCell id="o-3EE55-kmr8AlU0Wy5A-147" value="MNP UAT" style="text;html=1;align=center;verticalAlign=middle;resizable=0;points=[];autosize=1;strokeColor=none;fontSize=16;" vertex="1" parent="1">
          <mxGeometry x="90" y="1025" width="90" height="20" as="geometry" />
        </mxCell>
        <mxCell id="o-3EE55-kmr8AlU0Wy5A-156" style="edgeStyle=orthogonalEdgeStyle;rounded=0;orthogonalLoop=1;jettySize=auto;html=1;fontSize=16;" edge="1" parent="1" source="o-3EE55-kmr8AlU0Wy5A-155" target="o-3EE55-kmr8AlU0Wy5A-92">
          <mxGeometry relative="1" as="geometry" />
        </mxCell>
        <mxCell id="o-3EE55-kmr8AlU0Wy5A-155" value="Coupon Development" style="text;html=1;align=center;verticalAlign=middle;resizable=0;points=[];autosize=1;strokeColor=none;fontSize=16;" vertex="1" parent="1">
          <mxGeometry x="30" y="235" width="170" height="20" as="geometry" />
        </mxCell>
        <mxCell id="o-3EE55-kmr8AlU0Wy5A-158" style="edgeStyle=orthogonalEdgeStyle;rounded=0;orthogonalLoop=1;jettySize=auto;html=1;fontSize=16;" edge="1" parent="1" source="o-3EE55-kmr8AlU0Wy5A-157" target="o-3EE55-kmr8AlU0Wy5A-90">
          <mxGeometry relative="1" as="geometry" />
        </mxCell>
        <mxCell id="o-3EE55-kmr8AlU0Wy5A-157" value="MGM" style="text;html=1;align=center;verticalAlign=middle;resizable=0;points=[];autosize=1;strokeColor=none;fontSize=16;" vertex="1" parent="1">
          <mxGeometry x="90" y="155" width="50" height="20" as="geometry" />
        </mxCell>
        <mxCell id="o-3EE55-kmr8AlU0Wy5A-161" value="" style="rounded=0;whiteSpace=wrap;html=1;gradientColor=none;" vertex="1" parent="1">
          <mxGeometry x="269.5" y="1180" width="90" height="80" as="geometry" />
        </mxCell>
        <mxCell id="o-3EE55-kmr8AlU0Wy5A-162" value="ogp" style="ellipse;whiteSpace=wrap;html=1;aspect=fixed;gradientColor=none;" vertex="1" parent="1">
          <mxGeometry x="299.5" y="1210" width="30" height="30" as="geometry" />
        </mxCell>
        <mxCell id="o-3EE55-kmr8AlU0Wy5A-167" value="Preprod OGP &lt;br&gt;App" style="text;html=1;align=center;verticalAlign=middle;resizable=0;points=[];autosize=1;strokeColor=none;" vertex="1" parent="1">
          <mxGeometry x="269.5" y="1180" width="90" height="30" as="geometry" />
        </mxCell>
        <mxCell id="o-3EE55-kmr8AlU0Wy5A-168" value="" style="rounded=0;whiteSpace=wrap;html=1;gradientColor=none;" vertex="1" parent="1">
          <mxGeometry x="479" y="1180" width="90" height="80" as="geometry" />
        </mxCell>
        <mxCell id="o-3EE55-kmr8AlU0Wy5A-172" style="edgeStyle=orthogonalEdgeStyle;rounded=0;orthogonalLoop=1;jettySize=auto;html=1;fontSize=16;entryX=0.5;entryY=1;entryDx=0;entryDy=0;" edge="1" parent="1" source="o-3EE55-kmr8AlU0Wy5A-169" target="o-3EE55-kmr8AlU0Wy5A-129">
          <mxGeometry relative="1" as="geometry">
            <mxPoint x="710" y="1169.9999999999998" as="targetPoint" />
          </mxGeometry>
        </mxCell>
        <mxCell id="o-3EE55-kmr8AlU0Wy5A-169" value="OGP" style="ellipse;whiteSpace=wrap;html=1;aspect=fixed;gradientColor=none;" vertex="1" parent="1">
          <mxGeometry x="508.5" y="1210" width="30" height="30" as="geometry" />
        </mxCell>
        <mxCell id="o-3EE55-kmr8AlU0Wy5A-170" value="PPD-OGP" style="text;html=1;align=center;verticalAlign=middle;resizable=0;points=[];autosize=1;strokeColor=none;" vertex="1" parent="1">
          <mxGeometry x="488.5" y="1180" width="70" height="20" as="geometry" />
        </mxCell>
        <mxCell id="o-3EE55-kmr8AlU0Wy5A-171" style="edgeStyle=orthogonalEdgeStyle;rounded=0;orthogonalLoop=1;jettySize=auto;html=1;fontSize=16;exitX=1;exitY=0.5;exitDx=0;exitDy=0;" edge="1" parent="1" source="o-3EE55-kmr8AlU0Wy5A-162" target="o-3EE55-kmr8AlU0Wy5A-169">
          <mxGeometry relative="1" as="geometry" />
        </mxCell>
        <mxCell id="o-3EE55-kmr8AlU0Wy5A-149" style="edgeStyle=orthogonalEdgeStyle;rounded=0;orthogonalLoop=1;jettySize=auto;html=1;entryX=0;entryY=0.5;entryDx=0;entryDy=0;fontSize=16;" edge="1" parent="1" source="o-3EE55-kmr8AlU0Wy5A-49" target="o-3EE55-kmr8AlU0Wy5A-130">
          <mxGeometry relative="1" as="geometry">
            <Array as="points">
              <mxPoint x="660" y="1035" />
              <mxPoint x="660" y="955" />
            </Array>
          </mxGeometry>
        </mxCell>
        <mxCell id="o-3EE55-kmr8AlU0Wy5A-173" value="" style="rounded=0;whiteSpace=wrap;html=1;gradientColor=none;" vertex="1" parent="1">
          <mxGeometry x="260.5" y="350" width="90" height="240" as="geometry" />
        </mxCell>
        <mxCell id="o-3EE55-kmr8AlU0Wy5A-174" value="0" style="ellipse;whiteSpace=wrap;html=1;aspect=fixed;gradientColor=none;" vertex="1" parent="1">
          <mxGeometry x="290" y="380" width="30" height="30" as="geometry" />
        </mxCell>
        <mxCell id="o-3EE55-kmr8AlU0Wy5A-175" value="1" style="ellipse;whiteSpace=wrap;html=1;aspect=fixed;fillColor=none;gradientColor=none;" vertex="1" parent="1">
          <mxGeometry x="290" y="420" width="30" height="30" as="geometry" />
        </mxCell>
        <mxCell id="o-3EE55-kmr8AlU0Wy5A-176" value="2" style="ellipse;whiteSpace=wrap;html=1;aspect=fixed;fillColor=none;gradientColor=none;" vertex="1" parent="1">
          <mxGeometry x="290" y="460" width="30" height="30" as="geometry" />
        </mxCell>
        <mxCell id="o-3EE55-kmr8AlU0Wy5A-177" value="3" style="ellipse;whiteSpace=wrap;html=1;aspect=fixed;fillColor=none;gradientColor=none;" vertex="1" parent="1">
          <mxGeometry x="290" y="500" width="30" height="30" as="geometry" />
        </mxCell>
        <mxCell id="o-3EE55-kmr8AlU0Wy5A-178" value="4" style="ellipse;whiteSpace=wrap;html=1;aspect=fixed;fillColor=none;gradientColor=none;" vertex="1" parent="1">
          <mxGeometry x="290" y="540" width="30" height="30" as="geometry" />
        </mxCell>
        <mxCell id="o-3EE55-kmr8AlU0Wy5A-179" value="DIY App Dev" style="text;html=1;align=center;verticalAlign=middle;resizable=0;points=[];autosize=1;strokeColor=none;" vertex="1" parent="1">
          <mxGeometry x="264.5" y="350" width="80" height="20" as="geometry" />
        </mxCell>
        <mxCell id="o-3EE55-kmr8AlU0Wy5A-180" style="edgeStyle=orthogonalEdgeStyle;rounded=0;orthogonalLoop=1;jettySize=auto;html=1;fontSize=16;" edge="1" parent="1" source="o-3EE55-kmr8AlU0Wy5A-181" target="o-3EE55-kmr8AlU0Wy5A-177">
          <mxGeometry relative="1" as="geometry" />
        </mxCell>
        <mxCell id="o-3EE55-kmr8AlU0Wy5A-181" value="Coupon Development" style="text;html=1;align=center;verticalAlign=middle;resizable=0;points=[];autosize=1;strokeColor=none;fontSize=16;" vertex="1" parent="1">
          <mxGeometry x="30" y="505" width="170" height="20" as="geometry" />
        </mxCell>
        <mxCell id="o-3EE55-kmr8AlU0Wy5A-182" style="edgeStyle=orthogonalEdgeStyle;rounded=0;orthogonalLoop=1;jettySize=auto;html=1;fontSize=16;" edge="1" parent="1" source="o-3EE55-kmr8AlU0Wy5A-183" target="o-3EE55-kmr8AlU0Wy5A-175">
          <mxGeometry relative="1" as="geometry" />
        </mxCell>
        <mxCell id="o-3EE55-kmr8AlU0Wy5A-183" value="MGM" style="text;html=1;align=center;verticalAlign=middle;resizable=0;points=[];autosize=1;strokeColor=none;fontSize=16;" vertex="1" parent="1">
          <mxGeometry x="90" y="425" width="50" height="20" as="geometry" />
        </mxCell>
        <mxCell id="o-3EE55-kmr8AlU0Wy5A-186" value="" style="curved=1;endArrow=classic;html=1;strokeColor=#000000;fontSize=16;exitX=1;exitY=0.5;exitDx=0;exitDy=0;entryX=0;entryY=0.5;entryDx=0;entryDy=0;" edge="1" parent="1" source="o-3EE55-kmr8AlU0Wy5A-175" target="o-3EE55-kmr8AlU0Wy5A-41">
          <mxGeometry width="50" height="50" relative="1" as="geometry">
            <mxPoint x="630" y="260" as="sourcePoint" />
            <mxPoint x="680" y="210" as="targetPoint" />
            <Array as="points">
              <mxPoint x="410" y="370" />
              <mxPoint x="390" y="200" />
            </Array>
          </mxGeometry>
        </mxCell>
        <mxCell id="o-3EE55-kmr8AlU0Wy5A-187" value="" style="curved=1;endArrow=classic;html=1;strokeColor=#000000;fontSize=16;exitX=1;exitY=0.5;exitDx=0;exitDy=0;entryX=0;entryY=0.5;entryDx=0;entryDy=0;" edge="1" parent="1" source="o-3EE55-kmr8AlU0Wy5A-177" target="o-3EE55-kmr8AlU0Wy5A-43">
          <mxGeometry width="50" height="50" relative="1" as="geometry">
            <mxPoint x="324" y="540" as="sourcePoint" />
            <mxPoint x="503" y="270" as="targetPoint" />
            <Array as="points">
              <mxPoint x="400" y="480" />
              <mxPoint x="420" y="430" />
              <mxPoint x="434" y="350" />
            </Array>
          </mxGeometry>
        </mxCell>
      </root>
    </mxGraphModel>
  </diagram>
</mxfile>
